<svg width="32" height="32" viewBox="0 0 40 40" fill="none" xmlns="http://www.w3.org/2000/svg">
  <rect x="2" y="2" width="36" height="36" rx="8" fill="#E11D48"/>
  <path d="M20 10C15.5 10 12 13.5 12 18C12 20.5 13.2 22.7 15 24.1V28C15 29.1 15.9 30 17 30H23C24.1 30 25 29.1 25 28V24.1C26.8 22.7 28 20.5 28 18C28 13.5 24.5 10 20 10Z" fill="white"/>
  <circle cx="17" cy="17" r="1.5" fill="#E11D48"/>
  <circle cx="23" cy="17" r="1.5" fill="#E11D48"/>
  <path d="M17 22C17 22 18.5 24 20 24C21.5 24 23 22 23 22" stroke="#E11D48" stroke-width="1.5" stroke-linecap="round"/>
</svg>
